<?xml version="1.0" encoding="utf-8"?>
<!-- Generator: Adobe Illustrator 25.0.0, SVG Export Plug-In . SVG Version: 6.00 Build 0)  -->
<svg version="1.1" id="Camada_1" xmlns="http://www.w3.org/2000/svg" xmlns:xlink="http://www.w3.org/1999/xlink" x="0px" y="0px"
	 viewBox="0 0 512 512" style="enable-background:new 0 0 512 512;" xml:space="preserve">
<style type="text/css">
	.st0{fill:#0071FF;}
</style>
<g transform="translate(0.000000,512.000000) scale(0.100000,-0.100000)">
	<path class="st0" d="M1775,4570c-151-21-266-99-343-233c-25-43-52-140-52-185v-31l-457-4c-497-4-483-2-610-64c-36-17-87-56-134-103
		c-61-60-85-92-117-160c-22-47-45-112-51-144c-8-40-11-469-11-1320C0,1284,3,1054,14,999c43-203,203-369,421-436
		c57-17,148-18,2125-18c1942,0,2069,1,2129,18c184,50,329,189,404,384l22,58l3,1295c3,1432,5,1370-61,1502c-41,83-170,212-250,251
		c-127,62-113,60-609,64l-457,4l-6,47c-27,194-136,324-324,390c-40,14-138,16-811,18C2179,4577,1808,4574,1775,4570z M3375,4301
		c81-37,105-90,105-232c0-112,13-155,58-186c25-17,67-18,557-23l530-5l55-26c70-33,126-89,159-159l26-55V2340V1065l-23-57
		c-29-73-96-141-170-176l-57-27H2560H505l-57,27c-75,35-141,104-167,174c-21,54-21,67-21,1324c0,1252,0,1270,20,1324
		c27,72,88,139,158,173l57,28l530,5c397,4,535,8,552,17c49,29,65,67,69,176c3,56,7,117,10,135c6,39,57,100,99,118
		c24,11,187,13,805,13C3291,4320,3337,4319,3375,4301z"/>
	<path class="st0" d="M2465,3524c-139-19-193-30-281-59c-183-60-329-151-469-290c-177-176-290-393-336-645c-19-106-14-319,10-436
		c116-561,595-955,1161-956c149,0,231,12,365,53c234,72,450,223,596,415c137,180,216,385,238,617c59,616-370,1177-983,1286
		C2700,3521,2511,3531,2465,3524z M2785,3232c101-29,151-48,224-88c225-124,385-329,458-587c24-86,29-317,9-417
		c-48-237-193-453-389-583c-164-109-333-160-527-160c-150,0-260,23-386,82c-261,123-422,308-510,586c-27,85-29,100-28,260
		c0,156,2,177,27,258c108,351,377,595,730,663C2491,3265,2693,3257,2785,3232z"/>
	<path class="st0" d="M4195,3511c-83-39-136-123-136-216c0-176,176-286,337-211c177,82,177,340,0,422C4333,3535,4252,3538,4195,3511
		z"/>
</g>
</svg>
