<?xml version="1.0" encoding="utf-8"?>
<!-- Generator: Adobe Illustrator 25.0.0, SVG Export Plug-In . SVG Version: 6.00 Build 0)  -->
<svg version="1.1" id="Capa_1" xmlns="http://www.w3.org/2000/svg" xmlns:xlink="http://www.w3.org/1999/xlink" x="0px" y="0px"
	 viewBox="0 0 478.2 478.2" style="enable-background:new 0 0 478.2 478.2;" xml:space="preserve">
<style type="text/css">
	.st0{fill:#C6C6C6;}
</style>
<g>
	<path class="st0" d="M306,172.1c0-10.5,8.6-19.1,19.1-19.1s19.1,8.6,19.1,19.1s-8.6,19.1-19.1,19.1S306,182.6,306,172.1z
		 M153,191.2c10.5,0,19.1-8.6,19.1-19.1S163.5,153,153,153s-19.1,8.6-19.1,19.1S142.5,191.2,153,191.2z M133.9,306v19.1
		c0,0,38.2,38.2,105.2,38.2s105.2-38.2,105.2-38.2V306c0,0-38.2,38.2-105.2,38.2S133.9,306,133.9,306z M478.2,239.1
		c0,132-107.1,239.1-239.1,239.1S0,371.1,0,239.1S107.1,0,239.1,0C371,0,478.2,107.1,478.2,239.1z M459,239.1
		c0-122.4-97.5-219.9-219.9-219.9S19.2,116.7,19.2,239.1S116.7,459,239.1,459S459,361.5,459,239.1z"/>
</g>
</svg>
