<?xml version="1.0" encoding="utf-8"?>
<!-- Generator: Adobe Illustrator 25.0.0, SVG Export Plug-In . SVG Version: 6.00 Build 0)  -->
<svg version="1.1" id="Camada_1" xmlns="http://www.w3.org/2000/svg" xmlns:xlink="http://www.w3.org/1999/xlink" x="0px" y="0px"
	 viewBox="0 0 512 512" style="enable-background:new 0 0 512 512;" xml:space="preserve">
<style type="text/css">
	.st0{fill:#0071FF;}
</style>
<g transform="translate(0.000000,512.000000) scale(0.100000,-0.100000)">
	<g>
		<path class="st0" d="M1555,490c-357,51-689,326-804,668c-57,168-54,101-58,1331c-4,1182-2,1264,38,1410c102,375,445,675,833,729
			c107,15,1885,15,1992,0c373-52,699-324,818-682c52-156,51-144,51-1187v-975l-27-80c-15-44-45-107-67-140c-25-37-217-236-503-521
			c-506-503-507-504-664-544c-74-19-111-20-813-19C1946,481,1588,485,1555,490z M3042,1096c3,295,4,299,30,373
			c53,143,158,264,287,330c119,59,141,63,459,68l293,4l-3,932c-4,1041,1,972-77,1131c-86,175-238,301-436,362c-56,17-118,18-1040,18
			h-980l-80-28c-187-66-323-184-406-352c-79-162-74-69-74-1375c0-1290-4-1210,64-1357c39-83,70-127,138-196c69-70,143-120,226-154
			c125-51,133-51,889-52l706-1L3042,1096z M3870,1542c0,5-69,7-152,5c-171-4-214-17-276-79c-68-68-76-96-80-279l-3-165l255,255
			C3755,1419,3870,1538,3870,1542z"/>
	</g>
</g>
</svg>
