<?xml version="1.0" encoding="utf-8"?>
<!-- Generator: Adobe Illustrator 25.0.0, SVG Export Plug-In . SVG Version: 6.00 Build 0)  -->
<svg version="1.1" id="Camada_1" xmlns="http://www.w3.org/2000/svg" xmlns:xlink="http://www.w3.org/1999/xlink" x="0px" y="0px"
	 viewBox="0 0 512 512" style="enable-background:new 0 0 512 512;" xml:space="preserve">
<style type="text/css">
	.st0{fill:#0071FF;}
</style>
<g transform="translate(0.000000,512.000000) scale(0.100000,-0.100000)">
	<path class="st0" d="M2397,4944c-164-30-314-106-439-223c-96-90-156-171-207-283c-81-174-76-99-76-1228V2205l23-80
		c73-251,242-452,476-565c126-60,202-80,338-87c421-23,791,243,910,653l23,79v1005c0,952-1,1009-19,1075c-25,93-85,223-140,299
		c-59,82-187,202-267,249C2833,4942,2609,4982,2397,4944z M2695,4585c178-47,320-185,378-370l22-70v-940v-940l-26-71
		c-64-176-202-304-374-350c-69-19-209-18-276,2c-176,53-304,173-368,348l-26,71v940v940l22,70c58,182,191,316,368,366
		C2491,4603,2618,4605,2695,4585z"/>
	<path class="st0" d="M1172,2519c-26-13-55-39-70-62c-25-39-27-47-25-152c4-322,131-647,354-911c215-253,548-444,874-498l70-12
		l3-342l2-341h360v340c0,263,3,340,13,343c6,2,53,11,102,20c662,125,1180,736,1189,1402c1,104,0,113-26,151c-31,46-96,83-149,83
		c-45-1-111-31-137-64c-30-39-39-78-46-191c-25-461-361-879-811-1010c-402-116-836,1-1125,301c-93,97-144,169-203,284
		c-69,137-117,328-117,469c-1,104-35,163-113,196C1267,2546,1223,2544,1172,2519z"/>
</g>
</svg>
