<?xml version="1.0" encoding="utf-8"?>
<!-- Generator: Adobe Illustrator 25.0.0, SVG Export Plug-In . SVG Version: 6.00 Build 0)  -->
<svg version="1.1" id="Capa_1" fill="#ffffff" xmlns="http://www.w3.org/2000/svg" xmlns:xlink="http://www.w3.org/1999/xlink" x="0px" y="0px"
	 viewBox="0 0 484.5 484.5" xml:space="preserve">
<style type="text/css">
	.st0{fill:#FFFFFF;}
</style>
<g>
	<g id="mic">
		<path class="st0" d="M242.2,306c43.4,0,76.5-33.1,76.5-76.5v-153c0-43.3-33.1-76.5-76.5-76.5s-76.5,33.2-76.5,76.5v153
			C165.8,272.9,198.9,306,242.2,306z M377.4,229.5c0,76.5-63.8,130-135.1,130S107.1,306,107.1,229.5H63.8
			c0,86.7,68.9,158.1,153,170.8v84.1h51v-84.1c84.1-12.8,153-84.1,153-170.9L377.4,229.5L377.4,229.5z"/>
	</g>
</g>
</svg>
