<?xml version="1.0" encoding="utf-8"?>
<!-- Generator: Adobe Illustrator 25.0.0, SVG Export Plug-In . SVG Version: 6.00 Build 0)  -->
<svg version="1.1" id="Capa_1" xmlns="http://www.w3.org/2000/svg" xmlns:xlink="http://www.w3.org/1999/xlink" x="0px" y="0px"
	 viewBox="0 0 477.9 477.9" style="enable-background:new 0 0 477.9 477.9;" xml:space="preserve">
<style type="text/css">
	.st0{fill:#C6C6C6;}
</style>
<g>
	<g>
		<path class="st0" d="M329.6,142.7c6.5-6.5,6.5-17.3,0-24.1c-6.5-6.5-17.3-6.5-24.1,0L127.3,296.8c-21.2,21.2-21.2,56.1,0,77.4
			s56.1,21.2,77.3,0l186.7-186.7c1.7-0.9,3.4-2,5.1-3.4c24.9-24.9,91.2-91.2,27.5-155C399.6,4.7,370.4-4.6,339.5,2.2
			c-25.2,5.4-51.3,21.5-77.4,47.6L59.9,252.1c-24.1,24.1-36.8,57.5-35.4,94.1c1.4,34.9,15.9,68.9,40,92.9s57.5,38,92.1,38.8
			c0.9,0,1.7,0,2.8,0c34.6,0,66.3-13,89.8-36.5l199.5-199.5c6.5-6.5,6.5-17.3,0-24.1c-6.5-6.5-17.3-6.5-24.1,0L225.1,417.2
			c-17.6,17.6-41.7,26.9-68,26.6c-25.8-0.6-50.7-11-68.6-28.9C50.3,376.7,48.3,311.8,84,276.1L286.3,73.8c21-21,41.9-34.3,60.4-38.2
			c19.5-4.2,37.1,1.4,53.3,17.8c15.9,15.9,20.4,30.6,14.7,48.5c-4,12.8-13,26.9-28.3,43.9c-1.1,0.9-2.5,1.7-3.4,2.6l-202,202
			c-7.9,7.9-21.2,7.9-29.2,0s-7.9-21.2,0-29.2L329.6,142.7z"/>
	</g>
</g>
</svg>
