<?xml version="1.0" encoding="utf-8"?>
<!-- Generator: Adobe Illustrator 25.0.0, SVG Export Plug-In . SVG Version: 6.00 Build 0)  -->
<svg version="1.1" id="Capa_1" xmlns="http://www.w3.org/2000/svg" xmlns:xlink="http://www.w3.org/1999/xlink" x="0px" y="0px"
	 viewBox="0 0 605.1 605.1" style="enable-background:new 0 0 605.1 605.1;" xml:space="preserve">
<style type="text/css">
	.st0{fill:#D3D3D3;}
</style>
<g>
	<g>
		<path class="st0" d="M529.5,113.5h-56.7l-18.9-37.8c-11.1-22-16.9-37.8-37.8-37.8h-227c-20.9,0-27.8,18-37.8,37.8l-18.9,37.8H75.6
			C33.9,113.5,0,147.3,0,189.1v302.6c0,41.8,33.9,75.6,75.6,75.6h453.8c41.8,0,75.6-33.9,75.6-75.6V189.1
			C605.1,147.3,571.2,113.5,529.5,113.5z M302.6,491.7c-83.5,0-151.3-67.7-151.3-151.3S219,189.1,302.6,189.1
			s151.3,67.7,151.3,151.3S386.1,491.7,302.6,491.7z"/>
		<path class="st0" d="M302.6,226.9c-62.7,0-113.5,50.8-113.5,113.5s50.8,113.5,113.5,113.5S416,403,416,340.4
			S365.2,226.9,302.6,226.9z"/>
	</g>
</g>
</svg>
