<?xml version="1.0" encoding="utf-8"?>
<!-- Generator: Adobe Illustrator 25.0.0, SVG Export Plug-In . SVG Version: 6.00 Build 0)  -->
<svg version="1.1" id="Camada_1" xmlns="http://www.w3.org/2000/svg" xmlns:xlink="http://www.w3.org/1999/xlink" x="0px" y="0px"
	 viewBox="0 0 512 512" style="enable-background:new 0 0 512 512;" xml:space="preserve">
<style type="text/css">
	.st0{fill:#0071FF;}
</style>
<g transform="translate(0.000000,512.000000) scale(0.100000,-0.100000)">
	<path class="st0" d="M479.3,4908.3c-17.4-7.2-37.4-17.1-44.3-22.5c-22.6-19.8-40-71.1-40-117.1c0-37.8,366.1-1761.4,375.6-1770.4
		c2.6-2.7,1776.3-321.5,1992-358.4c60.9-10.8,110.4-21.6,110.4-24.3s-49.6-13.5-110.4-24.3c-216.5-36.9-1989.4-355.7-1992-358.4
		c-9.6-9-375.6-1732.6-375.6-1770.4c0-106.3,76.5-170.2,173-143.2c44.3,12.6,4084.8,2156.7,4111.8,2182.8
		c32.2,29.7,45.2,63,45.2,113.5s-13,83.7-45.2,113.5C4654.6,2753.4,615,4899.3,570.6,4911.9C529.8,4923.6,520.2,4922.7,479.3,4908.3
		z"/>
</g>
</svg>
