<?xml version="1.0" encoding="utf-8"?>
<!-- Generator: Adobe Illustrator 25.0.0, SVG Export Plug-In . SVG Version: 6.00 Build 0)  -->
<svg version="1.1" id="Camada_1" xmlns="http://www.w3.org/2000/svg" xmlns:xlink="http://www.w3.org/1999/xlink" x="0px" y="0px"
	 viewBox="0 0 512 512" style="enable-background:new 0 0 512 512;" xml:space="preserve">
<style type="text/css">
	.st0{fill:#0071FF;}
</style>
<g transform="translate(0.000000,512.000000) scale(0.100000,-0.100000)">
	<path class="st0" d="M3228.2,238.9c39.2,15.8,68.5,40.8,152.2,127.1c128.2,132.7,145.1,164.3,146,265.4c0,53.8-4.5,84.4-16.9,111.4
		c-11.6,25.1-296.4,329.4-885.6,944.7l-868.7,906.7l869.6,907.6c676.4,705.3,874,916,887.4,948.4c12.5,27.8,18.7,62.2,18.7,102.1
		c0,95.6-25.8,142-149.5,270.1c-87.2,90-113,110.4-155.8,127.1c-65,26-116.6,26-181.6,0.9c-49.8-18.6-96.1-65.9-1094.7-1107.1
		C794.8,2640.6,860.7,2716.7,860.7,2594.2c0-122.5-65.9-46.4,1088.5-1249.1C2948.7,302.9,2994.1,256.5,3043.9,238
		C3108,213.9,3165,213.9,3228.2,238.9z"/>
</g>
</svg>
