<?xml version="1.0" encoding="utf-8"?>
<!-- Generator: Adobe Illustrator 25.0.0, SVG Export Plug-In . SVG Version: 6.00 Build 0)  -->
<svg version="1.1" id="Camada_1" xmlns="http://www.w3.org/2000/svg" xmlns:xlink="http://www.w3.org/1999/xlink" x="0px" y="0px"
	 viewBox="0 0 512 512" style="enable-background:new 0 0 512 512;" xml:space="preserve">
<style type="text/css">
	.st0{fill:#0C71F4;}
</style>
<g transform="translate(0.000000,512.000000) scale(0.100000,-0.100000)">
	<path class="st0" d="M1169,4946c-113-44-287-194-492-426c-206-232-410-514-484-669l-37-75l12-101c92-795,754-1834,1642-2576
		c627-523,1303-862,1860-930c92-12,97-11,155,12c236,97,794,545,1005,808c130,162,152,245,98,363c-41,89-95,138-326,292
		c-489,325-840,506-984,506c-118,0-182-45-363-257c-70-81-133-149-140-151c-21-5-193,65-313,129c-405,212-720,527-931,929
		c-63,122-134,294-129,315c2,6,69,69,149,138c213,183,258,246,259,360c0,151-167,480-496,973c-87,130-173,249-199,273
		C1369,4938,1246,4976,1169,4946z M1318,4518c160-226,339-526,454-763c32-66,58-123,58-127c0-3-55-53-122-110
		c-171-143-274-244-294-286c-23-49-15-113,37-267c108-325,350-701,615-955c287-275,644-488,978-584c95-28,140-32,181-16
		c40,15,125,101,267,267c71,84,132,153,136,153s61-26,127-58c238-116,536-293,760-452l115-82l-81-89c-176-193-531-490-751-628
		l-67-42l-68,12c-882,147-1977,959-2648,1964c-284,426-462,836-524,1208l-12,68l35,57c122,201,433,574,631,758c49,46,91,83,92,84
		C1238,4630,1274,4579,1318,4518z"/>
</g>
</svg>
