<?xml version="1.0" encoding="utf-8"?>
<!-- Generator: Adobe Illustrator 25.0.0, SVG Export Plug-In . SVG Version: 6.00 Build 0)  -->
<svg version="1.1" id="Camada_1" xmlns="http://www.w3.org/2000/svg" xmlns:xlink="http://www.w3.org/1999/xlink" x="0px" y="0px"
	 viewBox="0 0 512 512" style="enable-background:new 0 0 512 512;" xml:space="preserve">
<style type="text/css">
	.st0{fill:#0C71F4;}
</style>
<g transform="translate(0.000000,512.000000) scale(0.100000,-0.100000)">
	<path class="st0" d="M681.5,4210.8c-171-45-317-200-349-371c-6-34-10-481-10-1220c0-1265-2-1219,54-1330c34-67,113-149,182-191
		c120-72,46-69,1435-69c790-1,1266,3,1300,9c90,17,190,72,253,141c106,114,136,205,136,411c0,76,2,138,5,138c2,0,212-103,465-230
		c267-133,472-230,488-230c43,1,107,35,133,71l24,34v1255v1255l-24,34c-26,36-90,70-133,71c-16,0-221-97-488-230
		c-253-126-463-230-465-230c-3,0-5,62-5,138c0,212-33,307-146,419c-69,70-154,116-243,133c-35,6-492,10-1300,9
		C849.5,4227.8,742.5,4225.8,681.5,4210.8z M3288.5,3882.8c15-11,37-33,48-48c21-27,21-31,21-1206v-1179l-21-28c-11-15-36-38-54-51
		l-33-22l-1253,2c-1247,3-1253,3-1280,24c-15,11-37,33-48,48c-21,27-21,34-24,1179c-1,634,0,1166,3,1184c7,40,49,91,90,109
		c24,11,256,13,1277,11C3256.5,3903.8,3261.5,3903.8,3288.5,3882.8z M4482.5,2628.8v-941l-400,203l-400,203v535v535l398,201
		c218,111,398,202,400,203C4481.5,3567.8,4482.5,3145.8,4482.5,2628.8z"/>
</g>
</svg>
